<svg xmlns="http://www.w3.org/2000/svg" viewBox="0 0 781.86 556.27">
	<g>
		<path d="M704.7,204.31l.14,3"/>
		<path d="M45.56,259.46l4.49,1.07,1-1.57C49.2,259.16,47.36,259.33,45.56,259.46Z"/>
		<path d="M111.36,377.62l13.53,5.58.22-5Z"/>
		<path d="M102.76,377.72l-1.28-.53-3.21-.14A43.18,43.18,0,0,0,102.76,377.72Z"/>
		<!-- <path d="M390.29,401.73a23.36,23.36,0,0,0,3.51-2.43C391.92,399.61,390.78,400.4,390.29,401.73Z"/> -->
		<path d="M216.39,372.54l-.73-.56-10.4,7c3.65,1.26,7.54,1.93,9,3l1.71.08Z"/>
		<path d="M184.11,380.75l7.57.33A36.34,36.34,0,0,0,184.11,380.75Z"/>
		<path d="M43.65,270.42l-1.78,2.74L44.42,271Z"/>
		<path d="M76.14,260.83c7.35-1.18,15.12-2.91,22.55-3.42l7.57-11.78A249.65,249.65,0,0,1,51.07,259l-1,1.57,15.73,3.78C67.69,263.65,71.6,261.57,76.14,260.83Z"/>
		<path d="M10.31,321.94,9.17,323.7l3,.3A55.64,55.64,0,0,1,31.52,330,360.81,360.81,0,0,1,63.8,349.69c3.43,2.33,4,6.05,6.52,8.93a19.16,19.16,0,0,0,6.84,4.86c11.35,4.75,22.78,9.44,34.2,14.14l13.75.59-.22,5q11.58,4.79,23.1,9.62c3.39,1.42,5.4,4,8,6l-7.54,3.38c2.83,1.68,2.83,1.68,18.17-4.34a20.73,20.73,0,0,0-2.91-1.41,8.74,8.74,0,0,0-1.9-.36h0s0,0,0,0c.54-2.11,2.12-4.2,1.28-5.85-2.19-4.29-1.53-7.7,4.91-10.52,9.16-4,18.1-8.22,27.14-12.33l2.07,1.27-5.7,6c8,.11,8,.11,21-11.71,1.71.81,2.8,2.38,4.09,3.77l.84-19.52c-.06-.15-.13-.3-.18-.46l.2,0,.33-7.51-44.75-1.93,1.85-42.95-4,1.05c-6.57,1.73-12.74,3.94-19.38-.56-2.27-1.54-7.89-1.23-11.69-2.17-7.47-1.85-12.63-4.29-5.37-9.33,1.41-1,1.31-2.73,2.54-6l-.14-.12.17,0,.11-.29a40.05,40.05,0,0,1-7.95,4.8l-.5,11.61c6.3,1.58,12.73,3,19,4.66,1.62.42,3.14,1,6.15,1.9-9.44,2.74-17.73,5-25.76,7.49L127,335.29,50.71,332l22.68-35.26a129.28,129.28,0,0,1-14.77-12.65c-5-5.13-11-7.73-18-9L12.42,318.67a26.42,26.42,0,0,1,2.88,3.72Z"/>
		<path d="M145.33,214.46c-5.09-1.83-8.59-3.2-12.27-4.37-.22-.08-.46-.14-.69-.21l-1.16,26.85c2.12.11,4.27.23,6.51.32,6.16-4,16.87-4,26.66-3.41-.54,4.58-3.34,9-.81,11.67,3.21,3.4,7.75,6,6,10.33-.39,1,.95,2.82,2.35,3.21a9.42,9.42,0,0,0,4.61-.67l1-22.38c-1-.25-2-.52-3-.8l3-.72.54-12.48C166.63,218.84,156.53,213.72,145.33,214.46Z"/>
		<path d="M57,369c18.42-3.84,26.65,5.11,41.29,8l3.21.14L63.9,361.43Z"/>
		<path d="M112.62,235.75l17.1-26.59a47.47,47.47,0,0,1-8-2.41c-6.59-3-23.38-5-34.14-4.15L65.42,236.78q18.69-.63,37.4-1.11C106.05,235.59,109.31,235.64,112.62,235.75Z"/>
		<path d="M139.3,448.81l28.91,1.25.46-10.67-2.36-2.49C157.7,441.87,142.75,441.12,139.3,448.81Z"/>
		<path d="M170.41,285c-.11-.48-.22-.95-.34-1.43l-33-6.35,0,.09,14.23,11.81Z"/>
		<path d="M84.2,244.24a8.24,8.24,0,0,0,2-1L81.88,240l12.33-1.24c-.1-.39-.19-.77-.29-1.15L64.2,238.67l-5.89,9.09.3-.09C66,245.29,75.6,245.33,84.2,244.24Z"/><path d="M147.35,134.59l3.61-2.35c6.29,10.85,18.16,10.82,30.52,10.37l.26-6.17c-7.09.56-14,.84-20-3l16.14-.92c0-.26-.07-.52-.1-.78l-28.4-4.05-12.95-.56-3.78,5.83,7.26.23L130.61,136l-.24.38,26,7.33Z"/>
		<path d="M80.77,276.92c-6.91-1.86-12.76-2.92-17,2.67,5.81,1.62,12.94,2.52,17.55,4.77L85.43,278C83.84,277.69,82.29,277.33,80.77,276.92Z"/>
		<path d="M138.07,251.38c2-.78,2.29-3.55,2.22-5.38,0-.73-3-1.69-5-2.06-1.45-.28-2.9-.54-4.37-.8l-.49,11.14C133,253.38,135.52,252.38,138.07,251.38Z"/>
		<path d="M593.47,296.31h.27l.9-1.71C594.26,295.18,593.88,295.75,593.47,296.31Z"/>
		<path d="M652.66,271.72l.9,20.21c1.92,3.15,3.41,6.43,5.08,9.64.13.25-1.73.86-4.56,2l0,.81c16,1.86,29.31,4.93,43.72,1.92-3.31-3.87-6.17-7.91-10.14-11.52a14.6,14.6,0,0,0-8.58-2.81c-6.54.41-9.19-1.26-7.71-4.43,1.09-2.33,4.61-5.94,7.34-6,7.16-.25,14.64.79,21.72,1.91a45.76,45.76,0,0,0,7.8.69l-1.49-33.3c-13.39,4.68-27.23,9-40.38,13.85A85.69,85.69,0,0,0,652.66,271.72Z"/>
		<path d="M684,236.32c6.88,3.27,14.34,3.54,22.27,3.43l-.35-7.84C696,228,690.76,229.64,684,236.32Z"/>
		<path d="M679.81,285.7l28.88,7.89-.2-4.5C694.08,283.49,686.83,282.83,679.81,285.7Z"/>
		<path d="M714.6,352.45c-7.73-2.28-14.68-5.45-22.1-8.11-12.32-4.41-24.7-8.76-37.18-13.16l.69,15.48-16.71.74C635,364.32,636,377.87,643,382.59V369h2.36v12.26a24.4,24.4,0,0,0,4.15.13c25.8-5.41,51.93-10.1,78.66-13.67,2.75-.37,4.44-3.48,6.62-5.32l-2.53-1.21-5.2,1.85v-9.91C722.85,353,718.08,353.47,714.6,352.45Z"/>
		<path d="M662,481l7.44-.33a46.6,46.6,0,0,0-7.72-6Z"/>
		<path d="M530.47,345.54c0,.13,0,.26,0,.39h37.19l.88-1.68Z"/>
		<path d="M693.7,224.89c4.66,1.16,8.3,4,12.11,4.25l-.24-5.46a37.17,37.17,0,0,1-3.65-1C700.44,222.14,696.5,224.08,693.7,224.89Z"/>
		<path d="M703.61,309.72c1.94.32,3.9.62,5.85.92l-.08-1.68c-3.53-.51-7.13-2-10.65-2.53C700.3,307.65,701.62,309.4,703.61,309.72Z"/>
		<path d="M597.78,231.23c2.42-1.81,3-4.48,4.09-6.36-8.5-.44-16.74,1.6-25.16,3.65l-3,5.71,2.52.15C584.37,235,592.23,235.38,597.78,231.23Z"/>
		<path d="M711,344.2l-1.33-29.91q-16.3-1.11-32.6-2.28c-7.51-.55-15-1.19-22.64-1.86l.68,15.28c3,1.18,5.9,2.56,9.07,3.58a28.52,28.52,0,0,0,8.2,1.08c5.08,0,10.62-1.11,15-.2,1.76.36,1,4.87,1.53,8L727.08,353v-.06c6.18,2.07,12.23,4.3,18.61,6.15,3,.89,8.41,2.12,9.78,1.36a86.86,86.86,0,0,0,9.36-6.13l-.56-12.5Z"/>
		<path d="M607.92,248.44c-.91-3.85-1.57-6.64-2.32-9.83l-14.82,7,1.85,1.64Z"/>
		<path d="M587.6,288.06a19.09,19.09,0,0,0,7.34-1.44c1.75-.83,3.48-1.68,5.24-2.55l4.07-7.75c-.86.1-1.72.18-2.57.25-8.94.7-15.49,7-27.18,2.59-5.43-2-14.86-.42-24.39-.36L545.25,288C559.36,288.1,573.48,288.09,587.6,288.06Z"/>
		<path d="M679.26,130c7.31-1.34,14.55-2.84,21.94-4l-.1-2.23c-5.27,1-10.55,2-15.77,3C683,127.25,681.3,128.87,679.26,130Z"/>
		<path d="M613.14,193.52a32.3,32.3,0,0,0,8.7,2.69c.41.08,3.32-3.16,3.11-3.24-4.44-1.86-9.15-3.48-13.82-5.15l-1.53,1.5C610.73,190.74,611.32,192.52,613.14,193.52Z"/>
		<path d="M646.27,195c-3.23,1.39-4.85,4.68-5.59,7.27a4.89,4.89,0,0,0,.69,3.4l5.78-11C646.86,194.81,646.55,194.91,646.27,195Z"/>
		<path d="M637.93,179.89c3.68-.38,6.66-3.08,10-4.76l-2.63-2.48-22,3-.07,2.68C628.14,179,633.32,180.38,637.93,179.89Z"/>
		<path d="M619.38,207.8c-2.53,2-3.16,4.85-4.62,7.33a105.5,105.5,0,0,0,11,0c2.82-.27,5.4-1.37,8.53-2.23l-3.71-8.71C625.69,205.68,621.36,206.23,619.38,207.8Z"/>
		<path d="M635.69,136.33l21.95,2.07c1.74-5.91,11.28-7.07,20.74-8.33l-43.58,5.05Z"/>
		<path d="M534.5,317.23c13.2-2,25.21-7.62,40.17-4.87,1,.19,3.71-.72,3.71-1.11,0-4.65,5.33-4.64,10.13-5l2.24-4.26c-7.28.4-14.74,0-22-.28-5.25-.24-9.91-5-13.15-6.77l-14.45.75L540,297.91l12.47.85,3.46,9.1,12.28-5.11,2.76,2.74c-6.44,1.9-12.67,4.1-19.35,5.63-6.86,1.56-13.83,3-20.86,4.27l-1.44,2.71C531.05,317.79,532.77,317.5,534.5,317.23Z"/><path d="M702.69,195.37c-17.89-11.87-35.3-4.09-44.78,12,15.42,3.48,30.77,4.2,46.93,0l-.14-3-10.25-2.51Z"/><path d="M704.65,218.9,649.9,210l.26,5.82C668,220.63,684.79,226.07,704.65,218.9Z"/><path d="M697.29,250.69l-.93-1-38.46,2.55c-.09-.38-.19-.77-.29-1.15L665,248l-1.7-2c-3.86,1.31-7.76,2.59-11.57,4l.69,15.44Z"/>
		<path d="M594.47,398.5c-8.8-.33-17.72.38-26,.67l14.91,2,14.74-.66A6.19,6.19,0,0,0,594.47,398.5Z"/>
		<path d="M663.91,191c-5.23,1.11-10.43,1.73-14.72,3l.4,9Z"/>
		<path d="M715.31,441.72l-.2-4.55c-1.87.21-3.74.4-5.6.62-5.76.66-11.37,2-17.15,2.32-8.39.41-16.91.32-25.32,0a56.41,56.41,0,0,1-6.89-.76l.37,8.28q16.54-2,33.13-3.79C700.85,443.07,708.08,442.39,715.31,441.72Z"/>
		<path d="M745.5,371.09l4.43-4.15c-25,4.16-49.65,8-74,12.48-4.75.87-8.22,4.06-12.45,6.05a14.06,14.06,0,0,1-4.59,1.09c-7.06-6.08-14.3-.43-21.95-.35v12.54l21.32-1,.77,17.13,10.63-6.05c-.39,2.24-.68,3.9-1,5.89,6.06.14,8.87-.26,7.9-4.79-2.39-11,7.27-14.79,24.48-13.22,4,.37,8.27.76,12.33,1.53l-.13-2.94L766.55,393l-1.3-29.13-17.52,8.39Z"/>
		<path d="M509.23,404.45l30.1-1.34c2.49-1.72,5-3.44,7.67-5.11,6.09-3.89,6.07-7.49,2.62-12.06-11.11-14.73-21.94-29.54-32.72-44.36l-9.66,18.26Z"/>
		<path d="M414.25,343.36c-1.68.59-3.31,1.11-4.9,1.53a215.68,215.68,0,0,1-2.71,25.56,77.55,77.55,0,0,1-5.31,18.39l33.58,11.42a111.34,111.34,0,0,0,4.45-14.71q4.71-20.43,5.85-48.65c-3,1.68-10,3.2-14.63,4.3C425.46,342.42,418.79,341.77,414.25,343.36Z"/>
		<path d="M400.47,399.52a22.88,22.88,0,0,0-6.67-.22,23.36,23.36,0,0,1-3.51,2.43,4.92,4.92,0,0,0-.29,1.83c13.82,1.93,27.27,4.12,40.68,6q1.5-2.78,2.82-5.82C422.46,402.4,411.41,401.09,400.47,399.52Z"/>
		<path d="M356.65,397.13q-7.12-7.61-10.33-25.38l-7.8-2.87-4.06,2.19c-1.12-2.73-1.89-4.61-2.67-6.49-.43.5-.87,1-1.31,1.49-7.13-1.72-14.19-3.56-21.36-5.21a214.26,214.26,0,0,0,4.09,24.69q6.19,26.85,21.3,40.26c1.06.94,2.17,1.82,3.31,2.66,13.37-7.53,27.11-14.94,38.19-23.47Q363.91,404.87,356.65,397.13Z"/>
		<path d="M315.93,322.79l-8.91.39c0,3.29.1,6.51.19,9.66C313.38,330.85,317.24,327,315.93,322.79Z"/>
		<path d="M430.2,265.23c4.93.26,8.79,0,11.67-1-.73-4.59-1.57-9-2.51-13.08-.37-1.57-.76-3.1-1.17-4.61-2.66-1-5.49-2.07-8-3.24Z"/>
		<path d="M309.61,271.86c3.9-1.19,8.05-2.13,12.16-3,8-1.71,16.3-2.84,24.56-4.09q3.21-17.72,10.32-25.32a25.42,25.42,0,0,1,3.36-3c-15.38,3.78-30.65,7.71-45.89,11.68l-.18.05c-.26,1-.5,2-.73,3A209.4,209.4,0,0,0,309.61,271.86Z"/>
		<path d="M398.94,417.72a6,6,0,0,0-1.08.37c.33,1,.66,2,1,3l-2.18.75-13.24-14.42c-4.14,2.28-7.59,4-10.72,5.91-10,6.11-19.22,12.75-29.85,18.4q13.51,7.5,33.58,7.5,26.83,0,41.77-13.42a54.47,54.47,0,0,0,6.46-7C416,418.32,406.54,422.1,398.94,417.72Z"/>
		<path d="M309.65,316.4a74.17,74.17,0,0,1,14.74-3.06,18.73,18.73,0,0,1,3.33.09C339,314,343,310.31,339,305c-10.86,0-21.44.43-31.77.3q-.18,6.42-.18,13.19c0,.87,0,1.73,0,2.6l8-4.33Z"/>
		<path d="M405,217v8.29c.1,0,.12,0,0,0h0a17.32,17.32,0,0,0-2,.74c-1.28.58-2.41,1.26-5.21,2.76,12.7,1.18,22.1,7.52,35.69,4.18-.24-.57-.5-1.11-.75-1.67l-3.47-.7c.09-.24.18-.48.28-.71l2.57.07a60.74,60.74,0,0,0-13.92-19.18c-.86-.77-1.76-1.5-2.69-2.2L408,221.23C406.29,218.7,405.63,217.74,405,217Z"/>
		<path d="M346.24,226.6l58-9.9C375.5,214.66,348.21,219,346.24,226.6Z"/>
		<path d="M388.27,230.89c-1.88.32-4.2.65-6.75,1a26.28,26.28,0,0,1,7.71,2.36Q388.75,232.56,388.27,230.89Z"/>
		<path d="M337,282.86c-9.32-2.22-18.51-4.68-28.08-4.62-.19,1.82-.36,3.68-.52,5.56q17.58,2.77,35.31,5.4c.11-1.81.23-3.56.35-5.26A52.32,52.32,0,0,1,337,282.86Z"/>
		<path d="M315.36,346.76c-1.08.1-2.13.33-4,.62-.22,1.78-.44,3.61-.69,5.63,6.28-.49,11.35-1.06,16.45-1.23,5.6-.19,11.23-.24,16.83-.1q-.27-3.62-.46-7.55C334.11,345,324.73,345.88,315.36,346.76Z"/>
		<!-- <path d="M778.16,357.64h0S778.16,357.63,778.16,357.64Z"/> -->
		<path d="M781.62,348.29a.58.58,0,0,0-.12.1l.36-.08h-.22Z"/>
		<path d="M683.33,556.27l0-.06C683.21,556.23,683.22,556.25,683.33,556.27Z"/>
		<path d="M627.41,0l-.11,0-.43.21Z"/>
		<path d="M517.54,446l.23-.13-.45-.05Z"/>
		<path d="M617.61,47.07l.53.11,0-.09-.34-.13Z"/>
		<path d="M601.65,403.56l-.3,0c0,.06,0,.13.07.2Z"/>
		<path d="M15.3,322.39a26.42,26.42,0,0,0-2.88-3.72l-2.11,3.27Z"/>
		<path d="M215.66,372l.73.56.25-5.79c-1.29-1.39-2.38-3-4.09-3.77-13,11.82-13,11.82-21,11.71l5.7-6-2.07-1.27c-9,4.11-18,8.3-27.14,12.33-6.44,2.82-7.1,6.23-4.91,10.52.84,1.65-.74,3.74-1.28,5.85a8.74,8.74,0,0,1,1.9.36,20.73,20.73,0,0,1,2.91,1.41c-15.34,6-15.34,6-18.17,4.34l7.54-3.38c-2.65-2-4.66-4.6-8-6q-11.51-4.86-23.1-9.62l-2.79,64.87,17.2.74c3.45-7.69,18.4-6.94,27-11.91l2.36,2.49,2.56-59.19,12.88.55a36.34,36.34,0,0,1,7.57.33l22.58,1c-1.46-1.1-5.35-1.77-9-3Z"/>
		<path d="M73.39,296.74l8-12.38c-4.61-2.25-11.74-3.15-17.55-4.77,4.21-5.59,10.06-4.53,17-2.67,1.52.41,3.07.77,4.66,1.11l13.26-20.62c-7.43.51-15.2,2.24-22.55,3.42-4.54.74-8.45,2.82-10.36,3.48l-15.73-3.78-6.4,9.89.77.56-2.55,2.18-1.24,1.92c7,1.28,13,3.88,18,9A129.28,129.28,0,0,0,73.39,296.74Z"/>
		<path d="M132.62,132.93l-2,3.11,9.27-2.88Z"/>
		<path d="M112.62,235.75c-3.31-.11-6.57-.16-9.8-.08q-18.7.45-37.4,1.11l-1.22,1.89,29.72-1.09c.1.38.19.76.29,1.15L81.88,240l4.37,3.25a8.24,8.24,0,0,1-2,1c-8.6,1.09-18.23,1-25.59,3.43l-.3.09L51.07,259a249.65,249.65,0,0,0,55.19-13.33Z"/>
		<path d="M217.3,346.77c0,.16.12.31.18.46l0-.51Z"/>
		<path d="M177.46,235.8l.06-1.52-3,.72C175.5,235.28,176.49,235.55,177.46,235.8Z"/>
		<path d="M153.92,299.89c-3-.93-4.53-1.48-6.15-1.9-6.27-1.62-12.7-3.08-19-4.66l-.61,14.05C136.19,304.92,144.48,302.63,153.92,299.89Z"/>
		<path d="M136.94,277.18l.14.12,0-.09Z"/>
		<path d="M70.32,358.62c-2.53-2.88-3.09-6.6-6.52-8.93A360.81,360.81,0,0,0,31.52,330,55.64,55.64,0,0,0,12.13,324l-3-.3L1.61,335.37,0,372.81l98.27,4.24C83.63,374.12,75.4,365.17,57,369l6.92-7.58,37.58,15.76,9.88.43c-11.42-4.7-22.85-9.39-34.2-14.14A19.16,19.16,0,0,1,70.32,358.62Z"/>
		<path d="M171.88,258.85c-1.4-.39-2.74-2.25-2.35-3.21,1.79-4.37-2.75-6.93-6-10.33-2.53-2.67.27-7.09.81-11.67-9.79-.57-20.5-.61-26.66,3.41-2.24-.09-4.39-.21-6.51-.32l-.27,6.41c1.47.26,2.92.52,4.37.8,1.93.37,4.95,1.33,5,2.06.07,1.83-.23,4.6-2.22,5.38-2.55,1-5,2-7.62,2.9l-1.18,27.44a40.05,40.05,0,0,0,7.95-4.8l-.11.29,33,6.35c.12.48.23.95.34,1.43l-19.1,4.12L137.08,277.3c-1.23,3.29-1.13,5-2.54,6-7.26,5-2.1,7.48,5.37,9.33,3.8.94,9.42.63,11.69,2.17,6.64,4.5,12.81,2.29,19.38.56l4-1.05,1.56-36.15A9.42,9.42,0,0,1,171.88,258.85Z"/>
		<path d="M177.85,132.49l-16.14.92c6,3.87,12.94,3.59,20,3l.32-7.37-32.71-1.41,28.4,4.05C177.78,132,177.82,132.23,177.85,132.49Z"/>
		<!-- <path d="M161.85,396.12h0S161.82,396.11,161.85,396.12Z"/> -->
		<path d="M727.4,353.13l-.32-.13v.12Z"/>
		<path d="M658.64,301.57c-1.67-3.21-3.16-6.49-5.08-9.64l.52,11.65C656.91,302.43,658.77,301.82,658.64,301.57Z"/>
		<path d="M571,305.49l-2.76-2.74-12.28,5.11-3.46-9.1L540,297.91l-9.24,17.48c7-1.29,14-2.71,20.86-4.27C558.3,309.59,564.53,307.39,571,305.49Z"/>
		<path d="M677,312q16.29,1.19,32.6,2.28l-.16-3.65c-2-.3-3.91-.6-5.85-.92s-3.31-2.07-4.88-3.29l-.89-.12h0c-14.41,3-27.77-.06-43.72-1.92l.26,5.76C662,310.82,669.51,311.46,677,312Z"/>
		<path d="M687.37,329.89c-4.42-.91-10,.21-15,.2a28.52,28.52,0,0,1-8.2-1.08c-3.17-1-6-2.4-9.07-3.58l.26,5.75c12.48,4.4,24.86,8.75,37.18,13.16,7.42,2.66,14.37,5.83,22.1,8.11,3.48,1,8.25.54,12.48.67V353L688.9,337.9C688.41,334.76,689.13,330.25,687.37,329.89Z"/>
		<path d="M715.31,441.72c-7.23.67-14.46,1.35-21.66,2.13q-16.59,1.8-33.13,3.79l1.21,27.08a46.6,46.6,0,0,1,7.72,6L717,478.57Z"/>
		<path d="M678.75,281.52c-2.73.09-6.25,3.7-7.34,6-1.48,3.17,1.17,4.84,7.71,4.43a14.6,14.6,0,0,1,8.58,2.81c4,3.61,6.83,7.65,10.14,11.52.19,0,.39-.07.58-.12l.31.24c3.52.55,7.12,2,10.65,2.53l-.69-15.37-28.88-7.89c7-2.87,14.27-2.21,28.68,3.39l-.22-5a45.76,45.76,0,0,1-7.8-.69C693.39,282.31,685.91,281.27,678.75,281.52Z"/>
		<path d="M678.38,130.07l.84-.1,0,0h0Z"/>
		<path d="M676.56,410c1,4.53-1.84,4.93-7.9,4.79.35-2,.64-3.65,1-5.89l-10.63,6.05,1.09,24.44a56.41,56.41,0,0,0,6.89.76c8.41.31,16.93.4,25.32,0,5.78-.27,11.39-1.66,17.15-2.32,1.86-.22,3.73-.41,5.6-.62l-1.74-38.89c-4.06-.77-8.38-1.16-12.33-1.53C683.83,395.18,674.17,398.93,676.56,410Z"/>
		<path d="M755.47,360.45c-1.37.76-6.74-.47-9.78-1.36-6.38-1.85-12.43-4.08-18.61-6.15V353l.32.13h-.32V363l5.2-1.85,2.53,1.21c-2.18,1.84-3.87,4.95-6.62,5.32-26.73,3.57-52.86,8.26-78.66,13.67a24.4,24.4,0,0,1-4.15-.13V369H643v13.59c-7.06-4.72-8-18.27-3.72-35.19l-74.14,3.31,2.51-4.78H530.48c0-.13,0-.26,0-.39l38.08-1.29,20-38c-4.8.33-10.13.32-10.13,5,0,.39-2.71,1.3-3.71,1.11-15-2.75-27,2.83-40.17,4.87-1.73.27-3.45.56-5.18.87L516.9,341.58c10.78,14.82,21.61,29.63,32.72,44.36,3.45,4.57,3.47,8.17-2.62,12.06-2.63,1.67-5.18,3.39-7.67,5.11l44-2-14.91-2c8.31-.29,17.23-1,26-.67a6.19,6.19,0,0,1,3.62,2L637,398.75V386.21c7.65-.08,14.89-5.73,21.95.35a14.06,14.06,0,0,0,4.59-1.09c4.23-2,7.7-5.18,12.45-6.05,24.32-4.45,49-8.32,74-12.48l-4.43,4.15,2.23,1.13,17.52-8.39-.42-9.51A86.86,86.86,0,0,1,755.47,360.45Z"/>
		<path d="M568.76,301.74c7.25.32,14.71.68,22,.28l3-5.7h-.27c.41-.56.79-1.13,1.17-1.7l5.54-10.54c-1.76.87-3.49,1.72-5.24,2.55a19.09,19.09,0,0,1-7.34,1.44c-14.12,0-28.24,0-42.35-.07l-4.09,7.73,14.45-.75C558.85,296.74,563.51,301.5,568.76,301.74Z"/>
		<path d="M663.91,191l-14.32,12,.31,7,54.75,8.92c-19.86,7.17-36.69,1.73-54.49-3.1l1.53,34.13c3.81-1.36,7.71-2.64,11.57-4l1.7,2-7.35,3.08c.1.38.2.77.29,1.15l38.46-2.55.93,1-44.91,14.68.28,6.35a85.69,85.69,0,0,1,13.74-7.05c13.15-4.89,27-9.17,40.38-13.85l-.49-11.07c-7.93.11-15.39-.16-22.27-3.43,6.74-6.68,12-8.32,21.92-4.41l-.13-2.77c-3.81-.29-7.45-3.09-12.11-4.25,2.8-.81,6.74-2.75,8.22-2.24a37.17,37.17,0,0,0,3.65,1l-.73-16.38c-16.16,4.23-31.51,3.51-46.93,0,9.48-16.05,26.89-23.83,44.78-12l-8.24,6.43,10.25,2.51L701.2,126c-7.39,1.15-14.63,2.65-21.94,4l0,0-.84.1c-9.46,1.26-19,2.42-20.74,8.33l-21.95-2.07-.89-1.21,43.58-5.05.87-.12h0c2-1.08,3.72-2.7,6.07-3.18,5.22-1.08,10.5-2.06,15.77-3l-1.23-27.6-54.4,2.43-68.76,130c8.42-2.05,16.66-4.09,25.16-3.65-1.14,1.88-1.67,4.55-4.09,6.36-5.55,4.15-13.41,3.74-21.57,3.15l-2.52-.15L550.11,278.8c9.53-.06,19-1.68,24.39.36,11.69,4.39,18.24-1.89,27.18-2.59.85-.07,1.71-.15,2.57-.25l37.12-70.62a4.89,4.89,0,0,1-.69-3.4c.74-2.59,2.36-5.88,5.59-7.27.28-.12.59-.22.88-.33l1.91-3.63.13,2.94m-23.47,21.14a105.5,105.5,0,0,1-11,0c1.46-2.48,2.09-5.32,4.62-7.33,2-1.57,6.31-2.12,11.16-3.59l3.71,8.71C631.12,213.78,628.54,214.88,625.72,215.15Zm-2.45-39.47,22-3,2.63,2.48c-3.29,1.68-6.27,4.38-10,4.76-4.61.49-9.79-.93-14.73-1.53Zm-12.14,12.14c4.67,1.67,9.38,3.29,13.82,5.15.21.08-2.7,3.32-3.11,3.24a32.3,32.3,0,0,1-8.7-2.69c-1.82-1-2.41-2.78-3.54-4.2Zm-5.53,50.79c.75,3.19,1.41,6,2.32,9.83l-15.29-1.23-1.85-1.64Z"/>
		<path d="M698.73,306.43l-.31-.24c-.19.05-.39.08-.58.12h0Z"/>
		<path d="M393.8,399.3a22.88,22.88,0,0,1,6.67.22c10.94,1.57,22,2.88,33,4.21.49-1.12.95-2.29,1.41-3.47l-33.58-11.42a31.92,31.92,0,0,1-5.25,8.29A25.84,25.84,0,0,1,393.8,399.3Z"/>
		<path d="M331.79,364.58c.78,1.88,1.55,3.76,2.67,6.49l4.062.19,7.8,2.87-.24-1.3q-1.36-8.06-2.14-18.77c-5.6-.14-11.23-.09-16.83.1-5.1.17-10.17.74-16.45,1.23.25-2,.47-3.85.69-5.63,1.88-.29,2.93-.52,4-.62,9.37-.88,18.75-1.73,28.12-2.63q-.59-11.53-.58-25.68,0-16.38.76-29.25-17.75-2.65-35.31-5.4-.86,10.14-1.17,21.46c10.33.13,20.91-.3,31.77-.3,4,5.35,0,9-11.23,8.47a18.73,18.73,0,0,0-3.33-.09,74.17,74.17,0,0,0-14.74,3.06l5.4.32-8,4.33c0,.71,0,1.43,0,2.13l8.91-.39c1.31,4.24-2.55,8.06-8.72,10q.45,15.09,1.91,28c7.17,1.65,14.23,3.49,21.36,5.21C330.92,365.57,331.36,365.08,331.79,364.58Z"/>
		<path d="M390,403.56a4.92,4.92,0,0,1,.29-1.83A27.91,27.91,0,0,1,376.45,405H376c-11.08,8.53-24.82,15.94-38.19,23.47a47.87,47.87,0,0,0,5.05,3.26c10.63-5.65,19.85-12.29,29.85-18.4,3.13-1.91,6.58-3.63,10.72-5.91l13.24,14.42,2.18-.75c-.34-1-.67-2-1-3a6,6,0,0,1,1.08-.37c7.6,4.38,17.06.6,25.74,1.12a63.86,63.86,0,0,0,6-9.29C417.27,407.68,403.82,405.49,390,403.56Z"/>
		<path d="M360,236.46c4.44-3.26,9.91-4.91,16.44-4.91a34.35,34.35,0,0,1,5.07.37c2.55-.38,4.87-.71,6.75-1q.48,1.67,1,3.39a23.33,23.33,0,0,1,6.85,5.16q7.2,7.89,10.56,26.67T410,318.45q0,14.63-.65,26.44c1.59-.42,3.22-.94,4.9-1.53,4.54-1.59,11.21-.94,16.33-2.16,4.65-1.1,11.6-2.62,14.63-4.3q.35-8.83.35-18.45,0-31-3.69-54.19c-2.88,1-6.74,1.23-11.67,1v-21.9c2.5,1.17,5.33,2.24,8,3.24a99.76,99.76,0,0,0-4.68-13.63c-13.59,3.34-23-3-35.69-4.18,2.8-1.5,3.93-2.18,5.21-2.76a17.32,17.32,0,0,1,2-.74V217l-.2-.23-.57,0-58,9.9c2-7.65,29.26-11.94,58-9.9l.77-.13v.4c.64.77,1.3,1.73,3,4.26l7.51-12.68q-14.58-11.2-39.08-11.22-26.85,0-41.94,13.42-14.25,12.67-20.57,37.44l.18-.05C329.36,244.17,344.63,240.24,360,236.46Z"/>
		<path d="M429.29,230.57l3.47.7c-.2-.45-.41-.9-.62-1.34l-2.57-.07C429.47,230.09,429.38,230.33,429.29,230.57Z"/>
		<path d="M404.22,216.7l.57,0,.2.23v-.4Z"/>
		<!-- <path d="M405,225.26h0C405.11,225.23,405.09,225.23,405,225.26Z"/> -->
		<path d="M337,282.86a52.32,52.32,0,0,0,7.06,1.08q.78-10.14,2.07-17.83c.08-.46.17-.9.25-1.35-8.26,1.25-16.59,2.38-24.56,4.09-4.11.88-8.26,1.82-12.16,3-.27,2.08-.51,4.21-.74,6.38C318.44,278.18,327.63,280.64,337,282.86Z"/>
	</g>
</svg>