<svg id="Layer_1" data-name="Layer 1" xmlns="http://www.w3.org/2000/svg" viewBox="0 0 1080 1080"><defs><style>.cls-1{fill:#139bd5;}</style></defs><path class="cls-1" d="M1080,545.33c0,92.25-28.92,167.86-80.55,240.92C949.35,857.17,900.16,940.09,816.23,980c-77.33,36.76-172.48,28.34-266.65,28.34s-180.17-10.83-257.5-47.58C208.15,920.84,137.4,865.94,87.3,795,35.67,722,0,637.58,0,545.33A441.73,441.73,0,0,1,80.75,291c50.11-70.91,118.93-139,202.85-178.89,77.34-36.76,171.82-41.26,266-41.26s177,29.05,254.31,65.8c83.93,39.88,165.73,82.51,215.83,153.42,51.63,73.07,60.28,163,60.28,255.26"/></svg>